<?xml version="1.0" encoding="utf-8"?>
<!-- Generator: Adobe Illustrator 19.2.1, SVG Export Plug-In . SVG Version: 6.00 Build 0)  -->
<svg version="1.1" id="Layer_1" xmlns="http://www.w3.org/2000/svg" xmlns:xlink="http://www.w3.org/1999/xlink" x="0px" y="0px"
	 viewBox="0 0 701.6 274" style="enable-background:new 0 0 701.6 274;" xml:space="preserve">
<style type="text/css">
	.st0{fill:none;stroke:#919191;stroke-miterlimit:10;stroke-dasharray:1,1;}
	.st1{fill:none;stroke:#FFFFFF;stroke-miterlimit:10;}
	.st2{fill:#3F3F3F;}
	.st3{fill:none;stroke:#F4475C;stroke-miterlimit:10;stroke-dasharray:1,1;}
	.st4{fill:#FF6680;}
	.st5{fill:#4949F2;}
	.st6{fill:none;stroke:#4949F2;stroke-miterlimit:10;}
	.st7{fill:none;stroke:#4949F2;stroke-miterlimit:10;stroke-dasharray:0.9993,0.9993;}
	.st8{fill:none;stroke:#4949F2;stroke-miterlimit:10;stroke-dasharray:0.9973,0.9973;}
	.st9{fill:none;stroke:#000000;stroke-miterlimit:10;}
	.st10{clip-path:url(#SVGID_4_);fill:#20CE94;}
	.st11{clip-path:url(#SVGID_4_);fill:#1BEDAC;}
	.st12{fill:#75937D;}
	.st13{fill:#FFFFFF;}
	.st14{clip-path:url(#SVGID_10_);fill:#20CE94;}
	.st15{clip-path:url(#SVGID_10_);fill:#1BEDAC;}
	.st16{clip-path:url(#SVGID_16_);fill:#20CE94;}
	.st17{clip-path:url(#SVGID_16_);fill:#1BEDAC;}
	.st18{fill:#20CE94;}
	.st19{clip-path:url(#SVGID_22_);fill:#20CE94;}
	.st20{clip-path:url(#SVGID_22_);fill:#1BEDAC;}
	.st21{fill:none;stroke:#3F3F3F;stroke-miterlimit:10;}
	.st22{clip-path:url(#SVGID_28_);fill:#20CE94;}
	.st23{clip-path:url(#SVGID_28_);fill:#1BEDAC;}
	.st24{fill:#EAE01C;}
	.st25{clip-path:url(#SVGID_34_);fill:#20CE94;}
	.st26{clip-path:url(#SVGID_34_);fill:#1BEDAC;}
	.st27{fill:none;stroke:#919191;stroke-miterlimit:10;}
	.st28{fill:none;stroke:#919191;stroke-miterlimit:10;stroke-dasharray:0.9991,0.9991;}
	.st29{fill:none;stroke:#919191;stroke-miterlimit:10;stroke-dasharray:1.0041,1.0041;}
	.st30{fill:none;stroke:#919191;stroke-miterlimit:10;stroke-dasharray:0.9998,0.9998;}
	.st31{fill:none;stroke:#919191;stroke-miterlimit:10;stroke-dasharray:1.004,1.004;}
	.st32{fill:none;stroke:#EAE01C;stroke-miterlimit:10;stroke-dasharray:1,1;}
	.st33{fill:#6C6CFF;}
	.st34{fill:#1BEDAC;}
	.st35{fill:#F4475C;}
	.st36{fill:#D1425A;}
	.st37{fill:#4040C1;}
	.st38{fill:#CCBF1D;}
	.st39{fill:#EAEA47;}
	.st40{fill:#EFEFEF;}
	.st41{fill:#919191;}
</style>
<g>
	<g>
		
			<image style="overflow:visible;opacity:0.12;" width="721" height="1104" xlink:href="3DA9078E0EF24991.png"  transform="matrix(0.24 0 0 0.24 -3.2007 9.4583)">
		</image>
		<g>
			<g>
				<g>
					<path class="st18" d="M1.8,132.8c0,0,52.4,44.7,50.7,134.4l7.4,1.2l22.9-137.7c-6-3-9.5-9.7-8.4-16.6c1.4-8.6,9.6-14.4,18.2-13
						l13-78.2L42.4,12.5L1.8,132.8z"/>
				</g>
				<g>
					<path class="st34" d="M168.6,33.4l-63.1-10.5l-13,78.2c0,0,0,0,0,0c8.6,1.4,14.4,9.6,13,18.2c-1.2,7-6.7,12.1-13.3,13L69.3,270
						l7.4,1.2c27.4-85.4,91.5-110.8,91.5-110.8L168.6,33.4z"/>
				</g>
			</g>
		</g>
	</g>
	
		<rect x="42.4" y="18.7" transform="matrix(0.9865 0.1639 -0.1639 0.9865 4.7326 -17.0996)" class="st12" width="127.1" height="2.9"/>
	
		<rect x="43.1" y="14.5" transform="matrix(0.9865 0.1639 -0.1639 0.9865 4.0629 -17.2684)" class="st12" width="127.1" height="2.9"/>
	
		<rect x="43.8" y="10.4" transform="matrix(0.9865 0.1639 -0.1639 0.9865 3.3933 -17.4372)" class="st12" width="127.1" height="2.9"/>
	<g>
		<path class="st2" d="M272.5,166.1c-0.6,1-1.3,1.8-2,2.3s-1.6,0.8-2.7,0.8c-1,0-2-0.3-3.1-0.9c-1.1-0.6-2.4-1.3-3.8-2
			c-1.4-0.8-3-1.4-4.8-2c-1.8-0.6-3.9-0.9-6.2-0.9c-4,0-7,0.9-8.9,2.6c-2,1.7-2.9,4-2.9,6.9c0,1.9,0.6,3.4,1.8,4.6
			c1.2,1.2,2.7,2.3,4.6,3.2c1.9,0.9,4.1,1.7,6.6,2.4c2.5,0.7,5,1.6,7.5,2.5c2.6,0.9,5.1,2,7.5,3.2c2.5,1.2,4.6,2.8,6.6,4.7
			c1.9,1.9,3.5,4.2,4.6,6.9c1.2,2.7,1.8,6,1.8,9.8c0,4.2-0.7,8.2-2.2,11.9c-1.5,3.7-3.6,6.9-6.4,9.7c-2.8,2.8-6.2,4.9-10.3,6.5
			c-4.1,1.6-8.8,2.4-14,2.4c-2.9,0-5.8-0.3-8.7-0.9c-3-0.6-5.8-1.4-8.6-2.5c-2.8-1.1-5.4-2.3-7.8-3.8c-2.4-1.5-4.6-3.1-6.4-4.9
			l6.3-10c0.5-0.8,1.1-1.4,2-1.8c0.8-0.5,1.7-0.7,2.7-0.7c1.3,0,2.5,0.4,3.8,1.2c1.3,0.8,2.7,1.7,4.4,2.6c1.6,1,3.5,1.9,5.6,2.6
			c2.1,0.8,4.6,1.2,7.4,1.2c3.9,0,6.9-0.9,9-2.6c2.1-1.7,3.2-4.4,3.2-8.1c0-2.1-0.6-3.9-1.8-5.2c-1.2-1.3-2.7-2.5-4.6-3.3
			c-1.9-0.9-4.1-1.7-6.5-2.3c-2.4-0.7-4.9-1.4-7.5-2.2c-2.6-0.8-5.1-1.8-7.5-3c-2.4-1.2-4.6-2.8-6.5-4.7c-1.9-2-3.5-4.4-4.6-7.3
			c-1.2-2.9-1.8-6.5-1.8-10.8c0-3.4,0.7-6.8,2.1-10.1c1.4-3.3,3.4-6.2,6.1-8.8c2.7-2.6,6-4.6,9.9-6.1c3.9-1.5,8.4-2.3,13.4-2.3
			c2.8,0,5.6,0.2,8.2,0.7c2.7,0.4,5.2,1.1,7.6,2c2.4,0.9,4.6,1.9,6.7,3.1c2.1,1.2,3.9,2.6,5.6,4.1L272.5,166.1z"/>
		<path class="st2" d="M364,215.5c0.5,0,1,0.1,1.5,0.3c0.5,0.2,1,0.5,1.5,1l8.4,8.9c-3.7,4.8-8.3,8.5-13.9,10.9
			c-5.6,2.5-12.2,3.7-19.8,3.7c-7,0-13.2-1.2-18.8-3.6c-5.5-2.4-10.2-5.7-14.1-9.8c-3.8-4.2-6.8-9.1-8.9-14.9
			c-2.1-5.7-3.1-12-3.1-18.7c0-6.9,1.2-13.1,3.5-18.9c2.4-5.7,5.6-10.7,9.9-14.9c4.2-4.2,9.3-7.4,15.2-9.7
			c5.9-2.3,12.4-3.5,19.5-3.5c3.4,0,6.7,0.3,9.7,0.9c3,0.6,5.9,1.5,8.5,2.5c2.6,1.1,5.1,2.4,7.3,3.8c2.2,1.5,4.2,3.1,5.9,5l-7.2,9.6
			c-0.5,0.6-1,1.1-1.6,1.6c-0.6,0.5-1.5,0.7-2.6,0.7c-0.8,0-1.5-0.2-2.1-0.5c-0.7-0.3-1.4-0.7-2.1-1.2c-0.8-0.5-1.6-1-2.5-1.6
			c-0.9-0.6-2-1.1-3.2-1.6c-1.2-0.5-2.7-0.9-4.4-1.2c-1.7-0.3-3.6-0.5-5.8-0.5c-3.9,0-7.4,0.7-10.6,2c-3.2,1.4-5.9,3.3-8.2,5.9
			c-2.3,2.5-4.1,5.6-5.4,9.2c-1.3,3.6-1.9,7.7-1.9,12.2c0,4.7,0.6,8.9,1.9,12.5c1.3,3.7,3,6.7,5.2,9.2c2.2,2.5,4.8,4.4,7.7,5.7
			c2.9,1.3,6.1,2,9.5,2c1.9,0,3.7-0.1,5.3-0.3c1.6-0.2,3.1-0.5,4.4-1c1.4-0.5,2.7-1.1,3.9-1.8c1.2-0.7,2.5-1.6,3.8-2.7
			c0.5-0.4,1-0.8,1.6-1C362.7,215.7,363.3,215.5,364,215.5z"/>
		<path class="st2" d="M419,205.3v34h-21.3v-91.9h29.9c6.6,0,12.3,0.7,17,2c4.7,1.4,8.5,3.3,11.5,5.7c3,2.4,5.1,5.3,6.5,8.6
			c1.3,3.3,2,6.9,2,10.8c0,3-0.4,5.8-1.2,8.5s-2,5.1-3.6,7.3c-1.6,2.2-3.5,4.3-5.8,6s-4.9,3.2-7.9,4.4c1.4,0.7,2.8,1.6,4,2.6
			c1.2,1.1,2.3,2.3,3.2,3.8l19.5,32h-19.3c-3.6,0-6.1-1.3-7.7-4l-15.3-26.7c-0.7-1.2-1.5-2-2.4-2.5s-2.2-0.8-3.8-0.8H419z
			 M419,190.6h8.6c2.9,0,5.4-0.4,7.4-1.1c2-0.7,3.7-1.8,5-3.1c1.3-1.3,2.2-2.8,2.8-4.6c0.6-1.7,0.9-3.6,0.9-5.6c0-4-1.3-7.2-3.9-9.5
			c-2.6-2.3-6.7-3.4-12.2-3.4H419V190.6z"/>
		<path class="st2" d="M517.5,239.3h-21.4v-91.9h21.4V239.3z"/>
		<path class="st2" d="M547.1,239.3v-91.9h33.8c6.3,0,11.8,0.6,16.2,1.8c4.5,1.2,8.1,2.8,10.9,5s4.9,4.8,6.1,7.8
			c1.3,3.1,1.9,6.5,1.9,10.3c0,2.1-0.3,4-0.9,6c-0.6,1.9-1.5,3.7-2.8,5.4c-1.3,1.7-2.9,3.2-4.9,4.6c-2,1.4-4.4,2.6-7.1,3.6
			c6.1,1.5,10.5,3.9,13.4,7.2c2.9,3.3,4.3,7.5,4.3,12.7c0,3.9-0.8,7.5-2.3,10.9c-1.5,3.4-3.7,6.3-6.7,8.8c-2.9,2.5-6.5,4.5-10.8,5.9
			c-4.3,1.4-9.2,2.1-14.7,2.1H547.1z M568.5,186.1h11.1c2.4,0,4.5-0.2,6.4-0.5c1.9-0.3,3.5-0.9,4.8-1.8c1.3-0.8,2.3-2,3-3.5
			c0.7-1.5,1-3.3,1-5.5c0-2.2-0.3-4-0.8-5.5s-1.4-2.6-2.5-3.5s-2.6-1.5-4.3-1.9s-3.8-0.6-6.2-0.6h-12.5V186.1z M568.5,200.3v22.9h15
			c2.8,0,5.1-0.4,6.9-1.1c1.8-0.7,3.2-1.6,4.2-2.8c1-1.1,1.7-2.4,2.1-3.8c0.4-1.4,0.6-2.9,0.6-4.4c0-1.7-0.2-3.2-0.7-4.5
			c-0.4-1.3-1.2-2.5-2.3-3.4c-1.1-0.9-2.5-1.6-4.3-2.1c-1.8-0.5-4-0.8-6.7-0.8H568.5z"/>
		<path class="st2" d="M701.6,147.4v16.4h-37.7v21.4h28.9V201h-28.9v21.9h37.7v16.4h-59.1v-91.9H701.6z"/>
	</g>
	<g>
		<path class="st2" d="M279.3,91c0,5.2-0.7,9.9-2.2,14s-3.6,7.6-6.3,10.4c-2.7,2.8-5.9,5-9.7,6.5c-3.8,1.5-7.9,2.2-12.4,2.2h-23.6
			V57.9h23.6c4.5,0,8.7,0.7,12.4,2.2c3.8,1.5,7,3.6,9.7,6.5c2.7,2.8,4.8,6.3,6.3,10.4C278.6,81.1,279.3,85.8,279.3,91z M278.1,91
			c0-5.1-0.7-9.7-2.2-13.7c-1.4-4-3.4-7.4-6-10.1c-2.6-2.7-5.7-4.8-9.3-6.2c-3.6-1.4-7.6-2.1-11.9-2.1h-22.5v64.3h22.5
			c4.4,0,8.3-0.7,11.9-2.1c3.6-1.4,6.7-3.5,9.3-6.2s4.6-6.1,6-10.1C277.4,100.7,278.1,96.2,278.1,91z"/>
		<path class="st2" d="M316.3,57.2c1.8,0,3.6,0.3,5.3,1c1.7,0.7,3.2,1.6,4.6,2.7c1.3,1.1,2.4,2.5,3.2,4c0.8,1.5,1.2,3.1,1.2,4.8
			h-0.3c-0.2,0-0.3-0.1-0.4-0.2c-0.1-0.1-0.2-0.3-0.3-0.6c-0.1-0.9-0.4-1.9-0.9-3.1c-0.6-1.2-1.4-2.4-2.5-3.5
			c-1.1-1.1-2.5-2.1-4.1-2.9c-1.7-0.8-3.6-1.2-5.8-1.2c-2.1,0-4.1,0.3-5.9,1s-3.3,1.6-4.6,2.8c-1.3,1.2-2.3,2.6-3,4.3
			s-1.1,3.5-1.1,5.5c0,2.9,0.8,5.7,2.3,8.4c1.6,2.7,3.9,5.5,7,8.5l22.5,21.6c1.6-2.4,2.9-4.9,3.8-7.4c0.9-2.6,1.5-5,1.8-7.2
			c0.1-0.3,0.1-0.4,0.2-0.6c0.1-0.1,0.2-0.2,0.5-0.2h0.4c-0.1,2.4-0.6,5-1.6,7.8c-1,2.8-2.4,5.6-4.3,8.3l13.9,13.3h-0.8
			c-0.3,0-0.5,0-0.7,0c-0.2,0-0.4-0.2-0.7-0.4l-12.3-12c-1.3,1.8-2.8,3.5-4.4,5.1c-1.7,1.6-3.5,3-5.6,4.2c-2,1.2-4.2,2.2-6.6,2.9
			c-2.4,0.7-4.9,1-7.6,1c-2.2,0-4.5-0.4-6.6-1.1c-2.2-0.7-4.2-1.8-5.9-3.3c-1.7-1.4-3.1-3.2-4.2-5.3c-1.1-2.1-1.6-4.6-1.6-7.3
			c0-2.4,0.4-4.6,1.3-6.8s2.1-4.1,3.7-5.9c1.6-1.8,3.4-3.3,5.5-4.7c2.1-1.3,4.3-2.4,6.8-3.2c-1.3-1.4-2.4-2.7-3.4-3.9
			c-1-1.2-1.8-2.5-2.5-3.7c-0.7-1.2-1.2-2.5-1.5-3.9c-0.3-1.3-0.5-2.7-0.5-4.3c0-2.1,0.4-4.1,1.2-5.8c0.8-1.8,1.9-3.3,3.3-4.6
			s3.1-2.3,5-3C311.9,57.5,314,57.2,316.3,57.2z M292.3,107.9c0,2.7,0.5,5.1,1.6,7.1c1.1,2,2.5,3.7,4.2,5s3.5,2.3,5.6,3
			c2,0.6,4,1,5.8,1c2.6,0,5.1-0.3,7.4-1c2.3-0.7,4.4-1.6,6.4-2.8c2-1.2,3.8-2.5,5.4-4.1c1.6-1.6,3-3.2,4.3-5l-23.9-22.9
			c-2.4,0.8-4.6,1.8-6.7,3.1c-2.1,1.3-3.8,2.8-5.3,4.6c-1.5,1.7-2.7,3.6-3.5,5.7C292.7,103.5,292.3,105.6,292.3,107.9z"/>
		<path class="st2" d="M415.3,91c0,5.2-0.7,9.9-2.2,14s-3.6,7.6-6.3,10.4c-2.7,2.8-5.9,5-9.7,6.5c-3.8,1.5-7.9,2.2-12.4,2.2H361
			V57.9h23.6c4.5,0,8.7,0.7,12.4,2.2c3.8,1.5,7,3.6,9.7,6.5c2.7,2.8,4.8,6.3,6.3,10.4C414.5,81.1,415.3,85.8,415.3,91z M414,91
			c0-5.1-0.7-9.7-2.2-13.7c-1.4-4-3.4-7.4-6-10.1c-2.6-2.7-5.7-4.8-9.3-6.2c-3.6-1.4-7.6-2.1-11.9-2.1h-22.5v64.3h22.5
			c4.4,0,8.3-0.7,11.9-2.1c3.6-1.4,6.7-3.5,9.3-6.2c2.6-2.7,4.6-6.1,6-10.1C413.3,100.7,414,96.2,414,91z"/>
	</g>
</g>
</svg>
